<svg width="42" height="42" viewBox="0 0 42 42" fill="none" xmlns="http://www.w3.org/2000/svg">
<path d="M21.1655 6C13.8944 6 8 11.8902 8 19.1561C8 22.8192 9.49816 26.1326 11.9156 28.5179H21.3718H30.4153C32.8328 26.1326 34.3309 22.8192 34.3309 19.1561C34.3309 11.8902 28.4365 6 21.1655 6Z" fill="url(#paint0_linear_57_7)"/>
<path d="M41.1438 28.518H1C1.24615 28.2195 1.84642 27.6882 2.4448 27.4443C3.37293 27.0661 4.20869 26.7328 4.83904 26.2881C6.4796 25.1306 6.99911 23.8129 7.89376 23.0671C9.13216 22.0348 9.71008 22.7781 10.9072 21.3328C12.1043 19.8875 15.2829 15.2213 18.0899 18.1944C20.897 21.1676 21.8877 23.604 24.2406 21.4567C25.1339 20.6415 26.3046 19.8462 27.2541 20.4656C28.4512 21.2915 29.7584 22.9494 30.6803 23.7691C32.1664 25.0906 33.5286 23.604 35.0147 25.4622C35.8213 26.4708 37.4502 27.3204 39.1427 27.6508C40.5462 27.9247 41.1438 28.518 41.1438 28.518Z" fill="#053A54"/>
<path d="M35.2775 31.9871C37.8799 31.8045 38.9712 30.8187 38.9712 30.8187C34.0183 31.4029 31.6279 30.1362 28.8543 30.0648C24.6645 29.9569 24.2898 31.1386 21.4683 31.0377C17.1906 30.8848 16.7253 29.6423 10.0096 29.8328C6.148 29.9423 4.30117 30.4535 4.30117 30.4535L3.16789 30.7821C3.11735 30.7861 3.06168 30.8187 3 30.8187C8.10215 30.7769 11.8564 30.8917 16.1377 31.9871C17.657 32.2607 17.9006 32.7174 21.0486 32.8269C24.1966 32.9364 25.2663 31.8386 28.268 31.6585C30.9976 31.7097 32.6752 32.1697 35.2775 31.9871Z" fill="#053A54"/>
<path d="M34.1152 34.193C31.9416 33.4381 29.7187 32.9853 26.905 33.741C24.0912 34.4967 22.3832 34.9004 17.5844 33.628C13.3788 32.568 11.1203 32.5353 8.00012 33.741C11.5272 33.3464 14.0397 33.8191 18.9913 35.5088C20.4422 36.0038 22.2008 36.1138 24.0473 35.8879C24.9917 35.7407 25.12 35.7042 25.5132 35.5923L25.5421 35.5841C30.1655 34.2688 30.4222 33.9293 34.1152 34.193Z" fill="#053A54"/>
<defs>
<linearGradient id="paint0_linear_57_7" x1="21.1655" y1="6" x2="21.1655" y2="28.5179" gradientUnits="userSpaceOnUse">
<stop stop-color="#EC9567"/>
<stop offset="1" stop-color="#E8C565"/>
</linearGradient>
</defs>
</svg>
