<svg width="1080" height="1080" viewBox="0 0 1080 1080" fill="none" xmlns="http://www.w3.org/2000/svg">
<path d="M539.813 162C356.582 162 208.043 310.433 208.043 493.534C208.043 585.845 245.797 669.343 306.716 729.453H545.013H772.91C833.829 669.343 871.583 585.845 871.583 493.534C871.583 310.433 723.045 162 539.813 162Z" fill="url(#paint0_linear_126_2)"/>
<path d="M1045.63 729.453H34C40.2029 721.932 55.3298 708.543 70.409 702.398C93.7979 692.865 114.859 684.468 130.744 673.26C172.086 644.091 185.178 610.886 207.723 592.092C238.931 566.077 253.494 584.808 283.662 548.387C313.829 511.965 393.929 394.376 464.666 469.3C535.404 544.224 560.37 605.62 619.665 551.508C642.174 530.966 671.677 510.924 695.603 526.534C725.771 547.346 758.712 589.124 781.945 609.783C819.394 643.082 853.722 605.62 891.172 652.448C911.499 677.865 952.547 699.275 995.197 707.6C1030.57 714.504 1045.63 729.453 1045.63 729.453Z" fill="#053A54"/>
<path d="M899.97 816.874C965.549 812.273 993.05 787.429 993.05 787.429C868.238 802.152 807.999 770.232 738.104 768.432C632.521 765.712 623.078 795.492 551.977 792.95C444.179 789.096 432.453 757.785 263.216 762.586C165.905 765.346 119.365 778.228 119.365 778.228L90.8064 786.509C89.5328 786.61 88.1299 787.429 86.5754 787.429C215.15 786.376 309.757 789.27 417.645 816.874C455.933 823.769 462.07 835.277 541.399 838.037C620.729 840.798 647.686 813.131 723.329 808.593C792.117 809.883 834.391 821.475 899.97 816.874Z" fill="#053A54"/>
<path d="M838.95 872.461C784.174 853.438 728.159 842.027 657.252 861.071C586.346 880.116 543.303 890.289 422.374 858.224C316.392 831.513 259.477 830.687 180.849 861.071C269.733 851.128 333.047 863.04 457.828 905.619C494.389 918.095 538.705 920.868 585.238 915.173C609.039 911.465 612.27 910.545 622.179 907.725L622.907 907.518C739.418 874.372 745.885 865.817 838.95 872.461Z" fill="#053A54"/>
<defs>
<linearGradient id="paint0_linear_126_2" x1="539.813" y1="162" x2="539.813" y2="729.453" gradientUnits="userSpaceOnUse">
<stop stop-color="#EC9567"/>
<stop offset="1" stop-color="#E8C565"/>
</linearGradient>
</defs>
</svg>
